HIERARCHY
ROOT Hips
{
    OFFSET 0.000000 0.000000 0.000000
    CHANNELS 6 Xposition Yposition Zposition Zrotation Xrotation Yrotation
    JOINT Spine
    {
        OFFSET -0.000000 7.236184 0.000000
        CHANNELS 3 Zrotation Xrotation Yrotation
        JOINT Spine1
        {
            OFFSET -0.000000 20.420147 0.000000
            CHANNELS 3 Zrotation Xrotation Yrotation
            JOINT Neck
            {
                OFFSET -0.000000 20.336288 1.848754
                CHANNELS 3 Zrotation Xrotation Yrotation
                JOINT Head
                {
                    OFFSET -0.000000 12.354461 -1.764923
                    CHANNELS 3 Zrotation Xrotation Yrotation
                    End Site
                    {
                        OFFSET -0.000000 22.061537 0.000000
                    }
                }
            }
            JOINT LeftShoulder
            {
                OFFSET 3.573296 18.396038 -0.314103
                CHANNELS 3 Zrotation Xrotation Yrotation
                JOINT LeftArm
                {
                    OFFSET 10.880760 0.000000 0.000000
                    CHANNELS 3 Zrotation Xrotation Yrotation
                    JOINT LeftForeArm
                    {
                        OFFSET 27.185530 0.000000 0.000000
                        CHANNELS 3 Zrotation Xrotation Yrotation
                        JOINT LeftHand
                        {
                            OFFSET 27.825975 0.000000 0.000000
                            CHANNELS 3 Zrotation Xrotation Yrotation
                            End Site
                            {
                                OFFSET 13.236923 0.000000 0.000000
                            }
                        }
                    }
                }
            }
            JOINT RightShoulder
            {
                OFFSET -3.474926 18.396038 -0.314103
                CHANNELS 3 Zrotation Xrotation Yrotation
                JOINT RightArm
                {
                    OFFSET -10.880760 0.000000 0.000000
                    CHANNELS 3 Zrotation Xrotation Yrotation
                    JOINT RightForeArm
                    {
                        OFFSET -27.185530 0.000000 0.000000
                        CHANNELS 3 Zrotation Xrotation Yrotation
                        JOINT RightHand
                        {
                            OFFSET -27.825975 0.000000 0.000000
                            CHANNELS 3 Zrotation Xrotation Yrotation
                            End Site
                            {
                                OFFSET -13.236923 0.000000 0.000000
                            }
                        }
                    }
                }
            }
        }
    }
    JOINT LeftUpLeg
    {
        OFFSET 8.824615 0.000000 0.000000
        CHANNELS 3 Zrotation Xrotation Yrotation
        JOINT LeftLeg
        {
            OFFSET -0.000000 -35.111282 0.000000
            CHANNELS 3 Zrotation Xrotation Yrotation
            JOINT LeftFoot
            {
                OFFSET -0.000000 -42.324711 0.000000
                CHANNELS 3 Zrotation Xrotation Yrotation
                JOINT LeftToeBase
                {
                    OFFSET -0.000000 -5.735999 13.236923
                    CHANNELS 3 Zrotation Xrotation Yrotation
                    End Site
                    {
                        OFFSET -0.000000 0.000000 3.529846
                    }
                }
            }
        }
    }
    JOINT RightUpLeg
    {
        OFFSET -8.824615 0.000000 0.000000
        CHANNELS 3 Zrotation Xrotation Yrotation
        JOINT RightLeg
        {
            OFFSET -0.000000 -35.111282 0.000000
            CHANNELS 3 Zrotation Xrotation Yrotation
            JOINT RightFoot
            {
                OFFSET -0.000000 -42.324711 0.000000
                CHANNELS 3 Zrotation Xrotation Yrotation
                JOINT RightToeBase
                {
                    OFFSET -0.000000 -5.735999 13.236923
                    CHANNELS 3 Zrotation Xrotation Yrotation
                    End Site
                    {
                        OFFSET -0.000000 0.000000 3.529846
                    }
                }
            }
        }
    }
}
MOTION
Frames:    11
Frame Time:    0.008333
-1.482571    81.992752    95.246979    1.325402    -5.516351    -178.380478    0.845242    -16.941147    1.947963    -4.584262    7.736485    2.132241    4.395035    6.680912    -6.818778    8.983959    8.426932    -6.870500    1.291513    17.133022    -4.399913    -42.569046    47.644501    -38.346981    -3.166425    -4.627959    -17.926785    16.412945    -4.557321    3.953653    0.868737    9.541712    4.145472    46.701637    -11.786134    39.515057    -57.189850    -42.608177    69.446793    -44.943871    1.631597    -7.893020    5.213881    -2.422103    -2.734318    -2.706133    5.460996    5.109842    -0.336810    -9.667141    -10.066336    -0.965647    1.808738    1.066956    -1.679155    -0.591929    -0.007402    12.048920    9.188454    -11.824672    0.000000    0.000000    0.000000    0.000000    0.000000    0.000000    
-1.485177    81.992714    95.246025    1.324896    -5.518111    -178.362946    0.849241    -16.942112    1.935191    -4.579361    7.732545    2.118336    4.400605    6.688020    -6.812439    8.980249    8.441179    -6.865492    1.287399    17.131184    -4.390450    -42.586365    47.653355    -38.332920    -3.157707    -4.632277    -17.919739    16.415262    -4.559050    3.960157    0.853862    9.521902    4.124120    46.036213    -11.398007    39.153675    -57.224030    -42.359619    69.822502    -45.049267    2.051994    -7.135178    5.211753    -2.425554    -2.749632    -2.709460    5.459960    5.125630    -0.336742    -9.666253    -10.084140    -0.965436    1.808926    1.066723    -1.680522    -0.591165    -0.017582    12.048001    9.188459    -11.828425    0.000000    0.000000    0.000000    0.000000    0.000000    0.000000    
-1.487507    81.992676    95.244888    1.324329    -5.519443    -178.347260    0.853155    -16.943464    1.923183    -4.574800    7.729379    2.105310    4.404483    6.695705    -6.806878    8.980440    8.455670    -6.860861    1.283710    17.127424    -4.381918    -42.606052    47.663548    -38.315796    -3.148023    -4.637526    -17.913660    16.415657    -4.561790    3.965707    0.838785    9.501642    4.103980    45.393543    -11.017013    38.805908    -57.273514    -42.110493    70.176346    -45.161972    2.472287    -6.384598    5.209814    -2.428183    -2.762538    -2.712493    5.459026    5.138604    -0.336570    -9.665589    -10.099795    -0.965336    1.809034    1.066612    -1.681628    -0.590184    -0.026820    12.046816    9.188790    -11.831922    0.000000    0.000000    0.000000    0.000000    0.000000    0.000000    
-1.489573    81.992653    95.243607    1.323492    -5.520516    -178.333603    0.856849    -16.945461    1.911992    -4.570662    7.727234    2.093205    4.406798    6.704010    -6.801946    8.984324    8.469803    -6.856438    1.280510    17.121635    -4.374306    -42.627953    47.674831    -38.295712    -3.137669    -4.643435    -17.908575    16.414156    -4.565333    3.970270    0.823542    9.481069    4.085296    44.775612    -10.643928    38.472355    -57.339588    -41.861916    70.505775    -45.281574    2.890782    -5.641881    5.207789    -2.430164    -2.772915    -2.715084    5.458310    5.148903    -0.336378    -9.665208    -10.113415    -0.965316    1.809133    1.066590    -1.682888    -0.589122    -0.034684    12.045730    9.189193    -11.834827    0.000000    0.000000    0.000000    0.000000    0.000000    0.000000    
-1.491322    81.992645    95.242172    1.322541    -5.521161    -178.322006    0.860343    -16.947935    1.901772    -4.566708    7.726023    2.082112    4.416010    6.709819    -6.796153    8.975798    8.485992    -6.852838    1.277587    17.114172    -4.367654    -42.651371    47.687214    -38.273441    -3.126658    -4.649873    -17.904387    16.410864    -4.569537    3.973793    0.808404    9.460753    4.068075    44.187485    -10.281792    38.155460    -57.423557    -41.616161    70.806664    -45.406670    3.303299    -4.912377    5.205898    -2.431310    -2.780561    -2.717286    5.457747    5.156332    -0.336074    -9.665038    -10.124906    -0.965380    1.808907    1.066660    -1.683923    -0.587891    -0.041404    12.044371    9.189879    -11.837641    0.000000    0.000000    0.000000    0.000000    0.000000    0.000000    
-1.492736    81.992653    95.240616    1.321446    -5.521374    -178.312576    0.863594    -16.950804    1.892564    -4.563023    7.725881    2.072184    4.437299    6.711187    -6.788552    8.945207    8.505280    -6.850370    1.275086    17.105328    -4.362007    -42.675575    47.699966    -38.249901    -3.115514    -4.656393    -17.900932    16.406237    -4.574043    3.976249    0.793666    9.440977    4.052404    43.634907    -9.934420    37.857994    -57.525654    -41.375523    71.074883    -45.535751    3.705065    -4.202740    5.204096    -2.431655    -2.785433    -2.719071    5.457400    5.160985    -0.335730    -9.665131    -10.134371    -0.965506    1.808706    1.066800    -1.684926    -0.586400    -0.046607    12.043131    9.190620    -11.839920    0.000000    0.000000    0.000000    0.000000    0.000000    0.000000    
-1.493808    81.992683    95.238945    1.320215    -5.521219    -178.305161    0.866637    -16.954111    1.884307    -4.559526    7.726696    2.063214    4.412918    6.728816    -6.789381    9.000174    8.510582    -6.845030    1.272807    17.095243    -4.357102    -42.699978    47.713509    -38.225513    -3.104029    -4.663069    -17.898262    16.400463    -4.578784    3.977958    0.779351    9.422157    4.038420    43.115192    -9.600859    37.577991    -57.646034    -41.138947    71.311966    -45.668743    4.097575    -3.508018    5.202392    -2.431325    -2.787603    -2.720432    5.457253    5.162814    -0.335354    -9.665390    -10.141791    -0.965675    1.808307    1.066988    -1.685798    -0.584736    -0.050545    12.041794    9.191431    -11.842011    0.000000    0.000000    0.000000    0.000000    0.000000    0.000000    
-1.494513    81.992722    95.237228    1.318828    -5.520672    -178.299774    0.869360    -16.957703    1.877111    -4.556291    7.728535    2.055440    4.427213    6.731743    -6.783570    8.983130    8.527181    -6.842599    1.270903    17.084333    -4.352896    -42.723740    47.727280    -38.201508    -3.092565    -4.669362    -17.896244    16.394089    -4.583309    3.978998    0.765839    9.404490    4.026235    42.639851    -9.288448    37.320801    -57.782726    -40.911716    71.512009    -45.802490    4.471662    -2.843496    5.200825    -2.430306    -2.787238    -2.721400    5.457441    5.162166    -0.334932    -9.665966    -10.147298    -0.965881    1.807678    1.067217    -1.686613    -0.582866    -0.053202    12.040515    9.192319    -11.843642    0.000000    0.000000    0.000000    0.000000    0.000000    0.000000    
-1.494839    81.992767    95.235489    1.317339    -5.519853    -178.296249    0.871807    -16.961512    1.870967    -4.553303    7.731143    2.048809    4.427335    6.739251    -6.780623    8.992812    8.538865    -6.839507    1.269218    17.072742    -4.349507    -42.746613    47.741074    -38.177990    -3.081252    -4.675047    -17.894682    16.387384    -4.587351    3.979416    0.753435    9.388614    4.015573    42.207912    -8.998013    37.085743    -57.934258    -40.693317    71.676544    -45.936554    4.827148    -2.207481    5.199410    -2.428848    -2.784492    -2.721989    5.457928    5.158811    -0.334462    -9.666698    -10.150681    -0.966154    1.807062    1.067519    -1.687294    -0.580968    -0.054683    12.039240    9.193204    -11.845008    0.000000    0.000000    0.000000    0.000000    0.000000    0.000000    
-1.494771    81.992813    95.233765    1.315802    -5.518699    -178.294403    0.873984    -16.965570    1.865804    -4.550557    7.734684    2.043277    4.433105    6.744121    -6.776933    8.992052    8.551470    -6.837017    1.267899    17.060848    -4.346637    -42.767796    47.754929    -38.156063    -3.070096    -4.679988    -17.893681    16.380753    -4.590743    3.979610    0.742078    9.374745    4.006587    41.824230    -8.733663    36.874477    -58.096947    -40.485443    71.805687    -46.069317    5.160323    -1.606568    5.198185    -2.426962    -2.779570    -2.722174    5.458713    5.152980    -0.333944    -9.667567    -10.152119    -0.966454    1.806479    1.067852    -1.687750    -0.578915    -0.055145    12.037943    9.194132    -11.846253    0.000000    0.000000    0.000000    0.000000    0.000000    0.000000    
-1.494293    81.992874    95.232101    1.314324    -5.517245    -178.294037    0.875836    -16.969511    1.861761    -4.547904    7.738707    2.038889    4.435845    6.749291    -6.774194    8.996873    8.562374    -6.834728    1.266767    17.049215    -4.344695    -42.786430    47.768360    -38.136356    -3.059236    -4.684108    -17.893188    16.374134    -4.593391    3.979459    0.732330    9.363130    3.999148    41.493870    -8.499943    36.688965    -58.266491    -40.291100    71.898697    -46.199066    5.465267    -1.050087    5.197277    -2.424767    -2.772856    -2.721939    5.459926    5.144903    -0.333526    -9.668630    -10.151649    -0.966767    1.805769    1.068199    -1.688023    -0.576655    -0.054383    12.036935    9.194786    -11.847077    0.000000    0.000000    0.000000    0.000000    0.000000    0.000000    
